<svg width="24" height="24" viewBox="0 0 24 24" fill="none" xmlns="http://www.w3.org/2000/svg">
<g clip-path="url(#clip0_178_5469)">
<circle cx="12" cy="12" r="11.5" stroke="black"/>
<path d="M10.3902 5.26905C10.3902 4.85709 10.5596 4.46201 10.8612 4.17071C11.1628 3.87941 11.5718 3.71576 11.9983 3.71576C12.4248 3.71576 12.8339 3.87941 13.1354 4.17071C13.437 4.46201 13.6064 4.85709 13.6064 5.26905C13.6064 5.68101 13.437 6.0761 13.1354 6.3674C12.8339 6.6587 12.4248 6.82235 11.9983 6.82235C11.5718 6.82235 11.1628 6.6587 10.8612 6.3674C10.5596 6.0761 10.3902 5.68101 10.3902 5.26905ZM11.7303 15.1066V19.2487C11.7303 19.8215 11.2512 20.2842 10.6582 20.2842C10.0652 20.2842 9.58615 19.8215 9.58615 19.2487V12.0291L8.62798 13.5695C8.32311 14.0581 7.66311 14.2167 7.15722 13.9222C6.65134 13.6277 6.48717 12.9902 6.79205 12.5016L8.74524 9.36263C9.32818 8.42742 10.3735 7.85464 11.5025 7.85464H12.4975C13.6265 7.85464 14.6718 8.42742 15.2548 9.36263L17.208 12.5016C17.5128 12.9902 17.3487 13.6277 16.8428 13.9222C16.3369 14.2167 15.6769 14.0581 15.372 13.5695L14.4105 12.0291V19.2487C14.4105 19.8215 13.9314 20.2842 13.3384 20.2842C12.7454 20.2842 12.2663 19.8215 12.2663 19.2487V15.1066H11.7303Z" fill="black"/>
</g>
<defs>
<clipPath id="clip0_178_5469">
<rect width="24" height="24" fill="white"/>
</clipPath>
</defs>
</svg>
