<svg width="24" height="24" viewBox="0 0 24 24" fill="none" xmlns="http://www.w3.org/2000/svg">
<g clip-path="url(#clip0_164_6335)">
<rect x="-3.8147e-06" width="24" height="24" rx="12" fill="black"/>
<path d="M3.24973 5.24734C2.72948 5.75217 2.72902 6.587 3.24872 7.0924L7.99576 11.7088C8.15979 11.8683 8.15979 12.1317 7.99576 12.2912L3.24872 16.9076C2.72902 17.413 2.72948 18.2479 3.24973 18.7527V18.7527C3.74869 19.2369 4.54208 19.2369 5.04104 18.7527L11.5842 12.4035C11.8118 12.1826 11.8118 11.8174 11.5842 11.5965L5.04104 5.24734C4.54208 4.76318 3.74868 4.76318 3.24973 5.24734V5.24734Z" fill="white"/>
<path d="M18.9959 18.8399H12.8551" stroke="white" stroke-width="2" stroke-linecap="round"/>
</g>
<defs>
<clipPath id="clip0_164_6335">
<rect width="24" height="24" fill="white"/>
</clipPath>
</defs>
</svg>
