<svg width="24" height="24" viewBox="0 0 24 24" fill="none" xmlns="http://www.w3.org/2000/svg">
<path d="M2.80635 0C2.2194 0 1.75866 0.503151 1.81022 1.08783L3.52626 20.5495C3.56128 20.9466 3.82878 21.2849 4.20708 21.4106L11.6847 23.8952C11.8894 23.9632 12.1106 23.9632 12.3153 23.8952L19.7929 21.4106C20.1712 21.2849 20.4387 20.9466 20.4738 20.5495L22.1898 1.08784C22.2414 0.503153 21.7806 0 21.1937 0H2.80635ZM17.3809 4.28571C17.9731 4.28571 18.4356 4.7975 18.3758 5.38668L18.2899 6.23297C18.2532 6.59496 18.0227 6.90843 17.6882 7.05148L12.0536 9.46071V9.46071C12.0506 9.4617 12.0513 9.46607 12.0544 9.46607H17.1123C17.5953 9.46607 17.9746 9.87993 17.9326 10.3611L17.3845 16.6386C17.3486 17.0492 17.0645 17.3958 16.6688 17.5114L12.3464 18.7747C12.1622 18.8285 11.9665 18.8282 11.7824 18.7738L7.42544 17.4861C7.03094 17.3696 6.74809 17.0233 6.7126 16.6134L6.52266 14.4202C6.47207 13.8361 6.9326 13.3339 7.51893 13.3339H8.12829C8.6483 13.3339 9.08152 13.7325 9.12482 14.2507L9.16023 14.6745C9.19578 15.1 9.49762 15.456 9.91162 15.5607L11.7785 16.0327C11.9482 16.0756 12.1262 16.0733 12.2947 16.0258L14.2833 15.4659C14.6931 15.3506 14.985 14.9883 15.0105 14.5633L15.1026 13.03C15.1371 12.4563 14.6821 11.9718 14.1074 11.97L6.25919 11.9464C6.25807 11.9464 6.25715 11.9455 6.25715 11.9444V11.9444C6.25715 11.9429 6.25555 11.9419 6.25419 11.9426L6.25157 11.9439C6.24912 11.9451 6.24621 11.9434 6.24599 11.9407L6.10973 10.1882C6.07623 9.75734 6.32326 9.35373 6.72216 9.18755L12.0589 6.96429V6.96429C12.1349 6.93274 12.1123 6.81964 12.0301 6.81964H6.70809C6.20288 6.81964 5.77702 6.44281 5.71553 5.94135L5.65005 5.40742C5.57696 4.81133 6.04206 4.28571 6.64262 4.28571H17.3809Z" fill="black"/>
</svg>
