<svg width="24" height="24" viewBox="0 0 24 24" fill="none" xmlns="http://www.w3.org/2000/svg">
<g clip-path="url(#clip0_164_6343)">
<mask id="mask0_164_6343" style="mask-type:luminance" maskUnits="userSpaceOnUse" x="0" y="0" width="24" height="24">
<path d="M24 0H0V24H24V0Z" fill="white"/>
</mask>
<g mask="url(#mask0_164_6343)">
<path d="M13.5011 15.3597C13.5011 16.3761 12.7418 17.0113 12.0693 17.0113C11.3967 17.0113 10.5898 16.6955 10.5898 15.3597V14.7101H9.70387V15.3597C9.70387 16.839 10.7654 18.0422 12.0693 18.0422C13.3731 18.0422 14.4346 16.839 14.4346 15.3597V14.7101H13.5011V15.3597Z" fill="black"/>
<path d="M6.06008 12.2226C6.06008 11.252 6.78648 10.4627 7.67896 10.4627C8.57086 10.4627 9.29725 11.2527 9.29725 12.2226H10.3169C10.3169 10.64 9.13416 9.35306 7.67896 9.35306C6.22375 9.35306 5.04037 10.64 5.04037 12.2226H6.06008Z" fill="black"/>
<path d="M14.463 12.2226C14.463 11.252 15.1895 10.4627 16.0813 10.4627C16.9738 10.4627 17.7002 11.2527 17.7002 12.2226H18.7199C18.7199 10.64 17.5365 9.35306 16.0813 9.35306C14.6261 9.35306 13.4433 10.64 13.4433 12.2226H14.463Z" fill="black"/>
<path fill-rule="evenodd" clip-rule="evenodd" d="M20.3652 8.45805V4.64371C20.3652 3.35828 20.2304 2.46641 19.9607 1.96808C19.691 1.46974 19.1295 1.08551 18.2762 0.815389C18.0185 0.731557 17.8898 0.596496 17.8898 0.410202C17.8898 0.158705 18.1795 0.032959 18.7591 0.032959H19.6407C20.5987 0.032959 21.3252 0.377597 21.8203 1.06688C22.3154 1.75617 22.5629 2.76214 22.5629 4.08483V8.10875C22.5629 9.04022 22.6495 9.75744 22.8226 10.2604C22.9957 10.7634 23.3156 11.2338 23.7825 11.6716C23.9194 11.802 23.9878 11.9091 23.9878 11.993C23.9878 12.0768 23.9194 12.1839 23.7825 12.3143C23.3076 12.7614 22.9856 13.2341 22.8165 13.7325C22.6475 14.2308 22.5629 14.9457 22.5629 15.8772V19.8871C22.5629 21.2191 22.3134 22.2297 21.8143 22.919C21.3151 23.6083 20.5907 23.953 19.6407 23.953H18.7591C18.3808 23.953 18.1413 23.932 18.0407 23.8901C17.9401 23.8482 17.8898 23.7434 17.8898 23.5757C17.8898 23.3429 18.0226 23.1892 18.2883 23.1146L18.7712 22.9889C19.8339 22.7095 20.3652 21.4939 20.3652 19.3422V15.5279C20.3652 14.0841 20.6671 13.0641 21.2709 12.468L21.5003 12.2445C21.613 12.1327 21.6694 12.0488 21.6694 11.993C21.6694 11.9278 21.613 11.8439 21.5003 11.7415L21.2709 11.5179C20.6671 10.9218 20.3652 9.90183 20.3652 8.45805Z" fill="black"/>
<path fill-rule="evenodd" clip-rule="evenodd" d="M3.62268 8.42509V4.61075C3.62268 3.32532 3.75752 2.43345 4.0272 1.93512C4.2969 1.43678 4.8584 1.05256 5.71174 0.78243C5.96935 0.698598 6.09815 0.563537 6.09815 0.377243C6.09815 0.125746 5.80834 0 5.22872 0H4.3472C3.38922 0 2.66268 0.344638 2.16758 1.03393C1.67249 1.72321 1.42494 2.72918 1.42494 4.05187V8.0758C1.42494 9.00726 1.3384 9.72448 1.16532 10.2275C0.992238 10.7305 0.672239 11.2009 0.205323 11.6386C0.0684662 11.7691 3.8147e-05 11.8762 3.8147e-05 11.96C3.8147e-05 12.0438 0.0684662 12.151 0.205323 12.2814C0.68029 12.7285 1.0023 13.2012 1.17136 13.6995C1.34042 14.1978 1.42494 14.9127 1.42494 15.8442V19.8542C1.42494 21.1862 1.6745 22.1968 2.17362 22.8861C2.67274 23.5754 3.39727 23.92 4.3472 23.92H5.22872C5.60708 23.92 5.84657 23.899 5.94721 23.8571C6.04784 23.8152 6.09815 23.7104 6.09815 23.5428C6.09815 23.3099 5.96532 23.1562 5.69966 23.0817L5.21664 22.9559C4.15399 22.6765 3.62268 21.4609 3.62268 19.3093V15.4949C3.62268 14.0511 3.3208 13.0312 2.71702 12.435L2.48759 12.2115C2.37488 12.0997 2.31853 12.0159 2.31853 11.96C2.31853 11.8948 2.37488 11.811 2.48759 11.7085L2.71702 11.485C3.3208 10.8888 3.62268 9.86887 3.62268 8.42509Z" fill="black"/>
</g>
</g>
<defs>
<clipPath id="clip0_164_6343">
<rect width="24" height="24" fill="white"/>
</clipPath>
</defs>
</svg>
