<svg width="24" height="24" viewBox="0 0 24 24" fill="none" xmlns="http://www.w3.org/2000/svg">
<path d="M3.65733 4.49027C3.65733 2.01036 5.66769 0 8.14762 0H15.8524C18.3323 0 20.3427 2.01036 20.3427 4.49027C20.3427 6.06056 19.5366 7.44263 18.3157 8.24517C19.5366 9.04777 20.3427 10.4298 20.3427 12.0001C20.3427 14.48 18.3323 16.4904 15.8524 16.4904H15.7549C14.5923 16.4904 13.5329 16.0485 12.7354 15.3236V19.461C12.7354 21.9739 10.6725 24 8.17181 24C5.69808 24 3.65733 21.9958 3.65733 19.5097C3.65733 17.9395 4.46332 16.5575 5.68416 15.7549C4.46332 14.9523 3.65733 13.5703 3.65733 12.0001C3.65733 10.4298 4.46339 9.04777 5.68432 8.24517C4.46339 7.44263 3.65733 6.06056 3.65733 4.49027ZM11.2646 8.98064H8.14762C6.48001 8.98064 5.12816 10.3325 5.12816 12.0001C5.12816 13.6613 6.46958 15.0091 8.12831 15.0195C8.13473 15.0195 8.14115 15.0195 8.14762 15.0195H11.2646V8.98064ZM12.7354 12.0001C12.7354 13.6677 14.0872 15.0195 15.7549 15.0195H15.8524C17.52 15.0195 18.8718 13.6677 18.8718 12.0001C18.8718 10.3325 17.52 8.98064 15.8524 8.98064H15.7549C14.0872 8.98064 12.7354 10.3325 12.7354 12.0001ZM8.14762 16.4904C8.14115 16.4904 8.13473 16.4903 8.12831 16.4903C6.46958 16.5007 5.12816 17.8485 5.12816 19.5097C5.12816 21.1712 6.49807 22.5292 8.17181 22.5292C9.87253 22.5292 11.2646 21.1493 11.2646 19.461V16.4904H8.14762ZM8.14762 1.47083C6.48001 1.47083 5.12816 2.82269 5.12816 4.49027C5.12816 6.15787 6.48001 7.5097 8.14762 7.5097H11.2646V1.47083H8.14762ZM12.7354 7.5097H15.8524C17.52 7.5097 18.8718 6.15787 18.8718 4.49027C18.8718 2.82269 17.52 1.47083 15.8524 1.47083H12.7354V7.5097Z" fill="black"/>
</svg>
