<svg width="24" height="24" viewBox="0 0 24 24" fill="none" xmlns="http://www.w3.org/2000/svg">
<g clip-path="url(#clip0_164_6334)">
<rect width="24" height="24" rx="12" fill="black"/>
<path fill-rule="evenodd" clip-rule="evenodd" d="M4.57251 11.9601C4.57251 16.0232 4.5989 19.3476 4.63114 19.3476C4.66338 19.3476 5.49897 18.5303 6.48801 17.5313L8.28625 15.715L10.124 17.5713L11.9618 19.4275L13.7779 17.5906C14.7767 16.5803 15.6301 15.7537 15.6742 15.7537C15.7184 15.7537 16.554 16.5623 17.5311 17.5507C18.5082 18.539 19.3346 19.3476 19.3676 19.3476C19.4005 19.3476 19.4275 16.0232 19.4275 11.9601C19.4275 7.89691 19.4009 4.57251 19.3685 4.57251C19.3361 4.57251 17.665 6.23459 15.6548 8.26597L12 11.9594L8.3452 8.26597C6.33504 6.23459 4.66385 4.57251 4.63146 4.57251C4.59906 4.57251 4.57251 7.89691 4.57251 11.9601Z" fill="white"/>
</g>
<defs>
<clipPath id="clip0_164_6334">
<rect width="24" height="24" fill="white"/>
</clipPath>
</defs>
</svg>
