<svg width="24" height="24" viewBox="0 0 24 24" fill="none" xmlns="http://www.w3.org/2000/svg">
<g clip-path="url(#clip0_746_2683)">
<path fill-rule="evenodd" clip-rule="evenodd" d="M12 0C5.37259 0 0 5.37259 0 12C0 18.6274 5.37259 24 12 24C18.6274 24 24 18.6274 24 12C24 5.37259 18.6274 0 12 0ZM13.0799 3.04163C13.0799 2.48935 12.6322 2.04163 12.0799 2.04163C11.5276 2.04163 11.0799 2.48935 11.0799 3.04163V17.0389C11.0799 17.5912 11.5276 18.0389 12.0799 18.0389C12.6322 18.0389 13.0799 17.5912 13.0799 17.0389V3.04163ZM21.3972 8.92566C21.901 8.69928 22.1258 8.10739 21.8994 7.60364C21.673 7.09988 21.0812 6.87503 20.5774 7.10144L15.2912 9.47711L13.5088 10.2782L15.2011 11.2552L20.2202 14.153C20.6985 14.4291 21.3101 14.2653 21.5862 13.787C21.8624 13.3087 21.6985 12.6971 21.2202 12.421L17.8935 10.5003L21.3972 8.92566ZM4.00349 12.19C3.92888 11.6428 3.42477 11.2596 2.87755 11.3343C2.33034 11.4089 1.94722 11.913 2.02184 12.4602C2.29948 14.4963 3.54741 16.9002 5.52229 18.7684C7.51768 20.6561 10.3181 22.0557 13.7333 21.9531C14.2853 21.9365 14.7194 21.4755 14.7028 20.9235C14.6862 20.3715 14.2252 19.9374 13.6732 19.954C10.8746 20.0381 8.57204 18.9004 6.89673 17.3155C5.20093 15.7113 4.21045 13.7076 4.00349 12.19Z" fill="black"/>
</g>
<defs>
<clipPath id="clip0_746_2683">
<rect width="24" height="24" rx="12" fill="white"/>
</clipPath>
</defs>
</svg>
