<svg width="25" height="25" viewBox="0 0 25 25" fill="none" xmlns="http://www.w3.org/2000/svg">
<path d="M8.41165 20.2587C8.41165 20.3579 8.30036 20.4373 8.16004 20.4373C8.00036 20.4522 7.88907 20.3728 7.88907 20.2587C7.88907 20.1594 8.00036 20.08 8.14068 20.08C8.28584 20.0651 8.41165 20.1445 8.41165 20.2587ZM6.90681 20.0353C6.87294 20.1346 6.96971 20.2487 7.11488 20.2785C7.24068 20.3281 7.38584 20.2785 7.41488 20.1793C7.44391 20.08 7.35197 19.9659 7.20681 19.9212C7.081 19.8865 6.94068 19.9361 6.90681 20.0353ZM9.04552 19.951C8.9052 19.9857 8.80842 20.08 8.82294 20.1941C8.83746 20.2934 8.96326 20.3579 9.10842 20.3232C9.24875 20.2884 9.34552 20.1941 9.331 20.0949C9.31649 20.0006 9.18584 19.9361 9.04552 19.951ZM12.2294 0.933899C5.5181 0.933899 0.384231 6.15963 0.384231 13.0429C0.384231 18.5465 3.76165 23.2561 8.58584 24.9137C9.2052 25.0278 9.42294 24.6358 9.42294 24.3132C9.42294 24.0055 9.40842 22.3083 9.40842 21.2661C9.40842 21.2661 6.02133 22.0105 5.31004 19.7872C5.31004 19.7872 4.75842 18.3431 3.96488 17.9709C3.96488 17.9709 2.85681 17.1917 4.04229 17.2066C4.04229 17.2066 5.24713 17.3059 5.91004 18.487C6.96971 20.4026 8.74552 19.8517 9.43746 19.5242C9.54875 18.7302 9.86326 18.1793 10.2116 17.8518C7.50681 17.5441 4.77778 17.1421 4.77778 12.368C4.77778 11.0032 5.14552 10.3184 5.91971 9.44493C5.79391 9.12236 5.38262 7.79235 6.04552 6.07526C7.05681 5.75268 9.38423 7.41519 9.38423 7.41519C10.352 7.13728 11.3923 6.99336 12.4229 6.99336C13.4536 6.99336 14.4939 7.13728 15.4616 7.41519C15.4616 7.41519 17.7891 5.74772 18.8004 6.07526C19.4633 7.79732 19.052 9.12236 18.9262 9.44493C19.7004 10.3233 20.1746 11.0082 20.1746 12.368C20.1746 17.157 17.3246 17.5391 14.6197 17.8518C15.0649 18.2438 15.4423 18.9882 15.4423 20.1544C15.4423 21.8269 15.4278 23.8963 15.4278 24.3033C15.4278 24.6258 15.6504 25.0179 16.2649 24.9038C21.1036 23.2561 24.3842 18.5465 24.3842 13.0429C24.3842 6.15963 18.9407 0.933899 12.2294 0.933899ZM5.08746 18.0503C5.02455 18.0999 5.03907 18.214 5.12133 18.3083C5.19875 18.3877 5.31004 18.4225 5.37294 18.3579C5.43584 18.3083 5.42133 18.1942 5.33907 18.0999C5.26165 18.0205 5.15036 17.9857 5.08746 18.0503ZM4.56488 17.6483C4.531 17.7128 4.57939 17.7922 4.67617 17.8418C4.75359 17.8915 4.85036 17.8766 4.88423 17.8071C4.9181 17.7426 4.86971 17.6632 4.77294 17.6135C4.67617 17.5838 4.59875 17.5987 4.56488 17.6483ZM6.13262 19.415C6.0552 19.4795 6.08423 19.6284 6.19552 19.7227C6.30681 19.8368 6.44713 19.8517 6.51004 19.7723C6.57294 19.7078 6.54391 19.5589 6.44713 19.4646C6.34068 19.3505 6.19552 19.3356 6.13262 19.415ZM5.581 18.6855C5.50359 18.7351 5.50359 18.8641 5.581 18.9783C5.65842 19.0924 5.78907 19.1421 5.85197 19.0924C5.92939 19.0279 5.92939 18.8989 5.85197 18.7847C5.78423 18.6706 5.65842 18.621 5.581 18.6855Z" fill="black"/>
</svg>
