<svg width="24" height="24" viewBox="0 0 24 24" fill="none" xmlns="http://www.w3.org/2000/svg">
<g clip-path="url(#clip0_164_6328)">
<path d="M4.08013 0C3.49752 0 3.03827 0.496051 3.08309 1.07693L4.58718 20.5716C4.61695 20.9574 4.86662 21.2915 5.22822 21.4292L11.6217 23.8648C11.8503 23.9519 12.1029 23.9522 12.3317 23.8656L18.7699 21.4285C19.1325 21.2912 19.3831 20.9567 19.4129 20.5702L20.9169 1.07692C20.9617 0.49605 20.5025 0 19.9199 0H4.08013ZM17.5211 5.93224C17.4792 6.45164 17.0454 6.85179 16.5243 6.85179H9.9065C9.32569 6.85179 8.86706 7.34493 8.90913 7.92422L8.95608 8.57064C8.99404 9.09345 9.42927 9.49821 9.95345 9.49821H16.1713C16.7551 9.49821 17.2148 9.99622 17.1681 10.5781L16.671 16.7769C16.6385 17.1827 16.3631 17.5283 15.9748 17.6507L12.0346 18.8926C12.0308 18.8938 12.0281 18.8974 12.0281 18.9014V18.9014C12.0281 18.9066 12.024 18.9107 12.0189 18.9107H11.9835C11.9789 18.9107 11.9743 18.91 11.97 18.9086L7.99916 17.6534C7.60747 17.5296 7.33134 17.1788 7.30296 16.769L7.1428 14.4566C7.10276 13.8785 7.56092 13.3875 8.14041 13.3875H8.38184C8.90306 13.3875 9.33687 13.7878 9.37863 14.3074L9.41451 14.7538C9.44727 15.1613 9.72485 15.5079 10.1154 15.6289L11.6812 16.1139C11.8736 16.1735 12.0795 16.1736 12.272 16.1142L13.8489 15.6276C14.2386 15.5073 14.5162 15.1625 14.5505 14.7561L14.6835 13.1805C14.7327 12.5971 14.2725 12.0964 13.687 12.0964H7.87759C7.35506 12.0964 6.92062 11.6941 6.88054 11.1731L6.43439 5.37312C6.38971 4.79233 6.84893 4.29643 7.43144 4.29643H16.5692C17.1532 4.29643 17.6129 4.79477 17.5659 5.37688L17.5211 5.93224Z" fill="black"/>
</g>
<defs>
<clipPath id="clip0_164_6328">
<rect width="24" height="24" fill="white"/>
</clipPath>
</defs>
</svg>
