<svg width="24" height="24" viewBox="0 0 24 24" fill="none" xmlns="http://www.w3.org/2000/svg">
<g clip-path="url(#clip0_164_6331)">
<rect width="24" height="24" fill="white"/>
<path d="M1 -3.05176e-05C0.447716 -3.05176e-05 0 0.447685 0 0.99997V23C0 23.5523 0.447715 24 1 24H23C23.5523 24 24 23.5523 24 23V0.99997C24 0.447685 23.5523 -3.05176e-05 23 -3.05176e-05H1ZM13.0607 18.7178C13.0607 21.0535 11.6893 22.1196 9.69107 22.1196C8.31752 22.1196 7.38431 21.58 6.78055 20.8241C6.4601 20.4229 6.63999 19.8552 7.0796 19.5899L7.26116 19.4803C7.74386 19.189 8.31786 19.4062 8.73523 19.7852C8.95247 19.9825 9.22083 20.1053 9.59464 20.1053C10.3339 20.1053 10.8054 19.816 10.8054 18.6857V12.0196C10.8054 11.4673 11.2531 11.0196 11.8054 11.0196H12.0607C12.613 11.0196 13.0607 11.4673 13.0607 12.0196V18.7178ZM18.3964 22.1196C16.749 22.1196 15.5588 21.5032 14.8052 20.6041C14.4645 20.1976 14.6466 19.6088 15.1059 19.3436L15.281 19.2425C15.7506 18.9714 16.3303 19.1484 16.728 19.517C17.1314 19.891 17.6436 20.1268 18.3482 20.1268C19.2804 20.1268 19.8804 19.6607 19.8804 19.0125C19.8804 18.241 19.2696 17.9678 18.2357 17.5125L17.6732 17.2714C16.0446 16.5803 14.9679 15.7071 14.9679 13.8696C14.9679 12.1768 16.2589 10.891 18.2679 10.891C19.3777 10.891 20.2443 11.1888 20.922 11.9277C21.2809 12.3191 21.1214 12.9205 20.6742 13.2068L20.6089 13.2486C20.1238 13.5592 19.5168 13.3238 19.0171 13.0371C18.8003 12.9127 18.5548 12.8571 18.2625 12.8571C17.6036 12.8571 17.1857 13.275 17.1857 13.8214C17.1857 14.4964 17.6036 14.7696 18.5732 15.1928L19.1357 15.4339C21.0536 16.2535 22.1304 17.0946 22.1304 18.9803C22.1304 21.0053 20.5339 22.1196 18.3964 22.1196Z" fill="black"/>
</g>
<defs>
<clipPath id="clip0_164_6331">
<rect width="24" height="24" fill="white"/>
</clipPath>
</defs>
</svg>
