<svg width="24" height="24" viewBox="0 0 24 24" fill="none" xmlns="http://www.w3.org/2000/svg">
<g clip-path="url(#clip0_164_6336)">
<path d="M23.4251 17.6273L23.3479 17.8075C23.0544 18.4341 22.6979 19.0292 22.2839 19.5836C20.8238 21.6017 18.6956 23.0367 16.2775 23.6337C15.7502 23.7669 15.2139 23.8615 14.6729 23.9169C13.9377 23.9954 13.1977 24.0184 12.4591 23.9855C11.701 23.9506 10.9467 23.8588 10.2024 23.7109C9.91029 23.6506 9.62339 23.5674 9.34433 23.4621C6.42935 22.5054 3.91305 20.6106 2.18811 18.0735C1.30226 16.7998 0.664722 15.3705 0.308963 13.8604C0.10237 13.018 -0.00135328 12.1536 6.13119e-05 11.2862C-0.00479677 9.99551 0.270389 8.71911 0.806637 7.54507C0.978569 7.17409 1.17641 6.81568 1.3987 6.47249L1.63037 6.15501L2.94321 4.49037L3.08908 4.31018C3.10747 4.36002 3.10747 4.41479 3.08908 4.46463C2.8345 5.00133 2.63332 5.56177 2.48844 6.13785C2.21446 7.26005 2.13321 8.42066 2.24818 9.57009C2.37983 10.8409 2.71897 12.0815 3.25211 13.2426C3.88578 14.6326 4.75687 15.9015 5.82629 16.9923C6.67034 17.8535 7.61869 18.6058 8.64931 19.2318C9.74871 19.8891 10.9322 20.3943 12.1673 20.7334C12.5621 20.8364 12.9739 20.9051 13.3858 20.9737C13.7922 21.0382 14.2018 21.0812 14.6128 21.1024C14.9989 21.1024 15.3765 21.1024 15.7626 21.1024C16.7807 21.0957 17.7934 20.9543 18.7744 20.682C20.0043 20.3472 21.1521 19.7631 22.1466 18.9658C22.5866 18.6102 22.9891 18.2106 23.3479 17.7731L23.3994 17.6273H23.4251Z" fill="black"/>
<path d="M23.5023 12.6677C23.0249 13.5517 22.3623 14.3222 21.5596 14.9264C20.7569 15.5306 19.8332 15.9543 18.8516 16.1686C18.29 16.3161 17.7152 16.4081 17.1355 16.4431C16.5644 16.4898 15.9905 16.4898 15.4194 16.4431C15.0247 16.4431 14.63 16.3488 14.2438 16.2973L14.0808 16.2544C12.2942 15.7529 10.6795 14.7705 9.41297 13.4142C8.50568 12.4474 7.80497 11.3058 7.35363 10.0592C7.07528 9.17716 6.94481 8.25517 6.9675 7.33055C6.97946 5.96271 7.41403 4.63202 8.21169 3.52076C8.49485 3.12606 8.77801 2.72277 9.06975 2.31948C9.11265 2.268 9.14697 2.21651 9.18988 2.17361C9.23278 2.13071 9.23278 2.17361 9.24994 2.17361L9.15555 2.3109C8.89361 2.85537 8.70602 3.43258 8.59781 4.02702C8.49308 4.59266 8.45564 5.1687 8.48627 5.74314C8.54357 6.74637 8.78803 7.73004 9.20704 8.64338C9.77683 9.89447 10.6077 11.0092 11.6439 11.9126C12.8425 12.9768 14.2782 13.7387 15.8313 14.135C16.701 14.3658 17.601 14.4613 18.4998 14.4181C19.7728 14.3661 21.0123 13.9943 22.1037 13.337C22.7871 12.9233 23.3867 12.3848 23.8713 11.7496L24 11.5951C24 11.5951 23.6396 12.4017 23.5023 12.6677Z" fill="black"/>
<path d="M14.2524 0.998057L14.1752 1.18683C13.9189 1.80532 13.813 2.47583 13.8663 3.14321C13.9636 4.18385 14.3499 5.17656 14.9818 6.00913C15.8176 7.16812 17.0313 7.99951 18.414 8.36021C19.0119 8.52533 19.63 8.60619 20.2503 8.60047C20.6774 8.60496 21.1028 8.5442 21.5116 8.42028C22.1128 8.24891 22.6557 7.91661 23.0819 7.45925L23.2277 7.31338C23.2277 7.36486 23.2277 7.38202 23.2277 7.39918C22.7205 8.37034 21.8884 9.13259 20.8767 9.55291C20.3556 9.7544 19.8046 9.8675 19.2463 9.88756C18.7001 9.91195 18.1528 9.87162 17.616 9.76743C17.2493 9.68647 16.8925 9.56562 16.552 9.40704C15.3037 8.85438 14.2681 7.91207 13.6003 6.72132C13.2739 6.14661 13.0613 5.51444 12.9739 4.85933C12.8112 3.72233 13.094 2.56641 13.7633 1.63302L14.1666 1.08386L14.2439 0.980896L14.2524 0.998057Z" fill="black"/>
</g>
<defs>
<clipPath id="clip0_164_6336">
<rect width="24" height="24" fill="white"/>
</clipPath>
</defs>
</svg>
