<svg width="24" height="24" viewBox="0 0 24 24" fill="none" xmlns="http://www.w3.org/2000/svg">
<path d="M13.1109 23.4621C15.5156 20.4527 21 13.159 21 9.0621C21 4.09335 16.9688 0.0621033 12 0.0621033C7.03125 0.0621033 3 4.09335 3 9.0621C3 13.159 8.48438 20.4527 10.8891 23.4621C11.4656 24.1793 12.5344 24.1793 13.1109 23.4621ZM12 6.0621C12.7956 6.0621 13.5587 6.37817 14.1213 6.94078C14.6839 7.50339 15 8.26645 15 9.0621C15 9.85775 14.6839 10.6208 14.1213 11.1834C13.5587 11.746 12.7956 12.0621 12 12.0621C11.2044 12.0621 10.4413 11.746 9.87868 11.1834C9.31607 10.6208 9 9.85775 9 9.0621C9 8.26645 9.31607 7.50339 9.87868 6.94078C10.4413 6.37817 11.2044 6.0621 12 6.0621Z" fill="black"/>
</svg>
