<svg width="24" height="24" viewBox="0 0 24 24" fill="none" xmlns="http://www.w3.org/2000/svg">
<g clip-path="url(#clip0_164_6340)">
<path d="M2.25 6C1.00781 6 0 7.00781 0 8.25C0 8.95781 0.332813 9.62344 0.9 10.05L11.1 17.7C11.6344 18.0984 12.3656 18.0984 12.9 17.7L23.1 10.05C23.6672 9.62344 24 8.95781 24 8.25C24 7.00781 22.9922 6 21.75 6H2.25ZM0 11.25V21C0 22.6547 1.34531 24 3 24H21C22.6547 24 24 22.6547 24 21V11.25L13.8 18.9C12.7312 19.7016 11.2688 19.7016 10.2 18.9L0 11.25Z" fill="black"/>
</g>
<defs>
<clipPath id="clip0_164_6340">
<rect width="24" height="24" fill="white"/>
</clipPath>
</defs>
</svg>
