<svg width="24" height="24" viewBox="0 0 24 24" fill="none" xmlns="http://www.w3.org/2000/svg">
<g clip-path="url(#clip0_164_6332)">
<path d="M19.6031 9.80456C19.35 9.72019 19.0969 9.6405 18.8438 9.5655C18.8859 9.39207 18.9234 9.21863 18.9609 9.04519C19.5375 6.25144 19.1578 4.00613 17.8781 3.2655C16.6453 2.55769 14.6344 3.29363 12.6 5.0655C12.3984 5.23894 12.2016 5.42175 12.0141 5.60457C11.8875 5.48269 11.7562 5.36082 11.625 5.24363C9.49219 3.34988 7.35469 2.553 6.075 3.29832C4.84688 4.01082 4.48125 6.12488 4.99687 8.76863C5.04844 9.03113 5.10469 9.28894 5.17031 9.55144C4.87031 9.63581 4.575 9.72956 4.29844 9.828C1.79531 10.6952 0 12.0639 0 13.4796C0 14.9421 1.9125 16.4093 4.51406 17.2999C4.725 17.3702 4.93594 17.4405 5.15156 17.5014C5.08125 17.7827 5.02031 18.0593 4.96406 18.3452C4.47188 20.9468 4.85625 23.0093 6.08438 23.7171C7.35 24.4483 9.47812 23.6983 11.55 21.8843C11.7141 21.7389 11.8781 21.5889 12.0422 21.4296C12.2484 21.6311 12.4641 21.8233 12.6797 22.0108C14.6859 23.7358 16.6688 24.4343 17.8922 23.7264C19.1578 22.9952 19.5703 20.778 19.0359 18.078C18.9938 17.8718 18.9469 17.6608 18.8953 17.4452C19.0453 17.403 19.1906 17.3561 19.3359 17.3093C22.0406 16.4139 24 14.9655 24 13.4796C24 12.0593 22.1531 10.6811 19.6031 9.80456ZM13.2609 5.82488C15.0047 4.30613 16.6313 3.71082 17.3719 4.13738C18.1641 4.59207 18.4687 6.42957 17.9719 8.84363C17.9391 9.003 17.9063 9.15769 17.8641 9.31238C16.8234 9.078 15.7687 8.90925 14.7094 8.8155C14.1 7.94363 13.4344 7.10925 12.7125 6.32644C12.8953 6.153 13.0734 5.98894 13.2609 5.82488ZM7.8375 15.9124C8.07656 16.3202 8.32031 16.728 8.57812 17.1264C7.84687 17.0468 7.12031 16.9296 6.40313 16.7749C6.60938 16.0999 6.86719 15.4014 7.16719 14.6889C7.38281 15.1014 7.60312 15.5093 7.8375 15.9124ZM6.41719 10.2733C7.09219 10.1233 7.80938 10.0014 8.55469 9.90769C8.30625 10.2968 8.0625 10.6952 7.83281 11.0983C7.60313 11.4968 7.37812 11.9046 7.16719 12.3171C6.87187 11.6186 6.62344 10.9343 6.41719 10.2733ZM7.70156 13.503C8.01094 12.8561 8.34844 12.2233 8.70469 11.5999C9.06094 10.9764 9.44531 10.3718 9.84844 9.77644C10.5516 9.72488 11.2687 9.69675 12 9.69675C12.7313 9.69675 13.4531 9.72488 14.1516 9.77644C14.55 10.3671 14.9297 10.9718 15.2906 11.5905C15.6516 12.2093 15.9891 12.8421 16.3078 13.4843C15.9937 14.1311 15.6562 14.7686 15.2953 15.3968C14.9391 16.0202 14.5594 16.6249 14.1609 17.2249C13.4625 17.2764 12.7359 17.2999 12 17.2999C11.2641 17.2999 10.5516 17.2764 9.8625 17.2343C9.45469 16.6389 9.07031 16.0296 8.70938 15.4061C8.34844 14.7827 8.01563 14.1499 7.70156 13.503ZM16.1672 15.903C16.4062 15.4905 16.6313 15.0733 16.8516 14.6514C17.1516 15.3311 17.4141 16.0202 17.6437 16.728C16.9172 16.8921 16.1812 17.0186 15.4406 17.103C15.6937 16.7093 15.9328 16.3061 16.1672 15.903ZM16.8422 12.3171C16.6219 11.9046 16.3969 11.4921 16.1625 11.0889C15.9328 10.6905 15.6938 10.2968 15.4453 9.90769C16.2 10.0014 16.9219 10.128 17.5969 10.2827C17.3812 10.9764 17.1281 11.6514 16.8422 12.3171ZM12.0094 7.04363C12.5016 7.578 12.9656 8.1405 13.3969 8.72175C12.4687 8.67957 11.5359 8.67957 10.6078 8.72175C11.0672 8.11707 11.5406 7.55457 12.0094 7.04363ZM6.57187 4.17019C7.35937 3.71082 9.10781 4.36707 10.95 5.99832C11.0672 6.10144 11.1844 6.21394 11.3062 6.32644C10.5797 7.10925 9.90938 7.94363 9.29531 8.8155C8.23594 8.90925 7.18594 9.07331 6.14531 9.303C6.08438 9.06394 6.03281 8.82019 5.98125 8.57644C5.54062 6.30769 5.83125 4.59675 6.57187 4.17019ZM5.42344 16.5264C5.22656 16.4702 5.03438 16.4093 4.84219 16.3436C3.84375 16.0296 2.70937 15.5327 1.88906 14.8811C1.41562 14.553 1.09687 14.0468 1.00781 13.4796C1.00781 12.6218 2.48906 11.5249 4.62656 10.7796C4.89375 10.6858 5.16562 10.6014 5.4375 10.5218C5.75625 11.5389 6.14062 12.5374 6.58594 13.503C6.13594 14.4827 5.74687 15.4952 5.42344 16.5264ZM10.8891 21.1202C10.1156 21.828 9.22031 22.3905 8.24531 22.7749C7.725 23.0233 7.125 23.0468 6.59063 22.8358C5.84531 22.4046 5.53594 20.7499 5.95781 18.5233C6.00937 18.2608 6.06563 17.9983 6.13125 17.7405C7.18125 17.9655 8.24062 18.1202 9.31406 18.1999C9.93281 19.0764 10.6125 19.9155 11.3391 20.703C11.1891 20.8483 11.0391 20.9889 10.8891 21.1202ZM12.0375 19.9811C11.5594 19.4655 11.0812 18.8936 10.6172 18.2796C11.0672 18.2983 11.5312 18.3077 12 18.3077C12.4828 18.3077 12.9562 18.2983 13.425 18.2749C12.9937 18.8702 12.5297 19.4374 12.0375 19.9811ZM18.1641 21.3874C18.1219 21.9593 17.8406 22.4936 17.3906 22.8546C16.6453 23.2858 15.0563 22.7233 13.3406 21.2514C13.1438 21.0827 12.9469 20.8999 12.7453 20.7124C13.4625 19.9202 14.1234 19.0811 14.7234 18.1999C15.7969 18.1108 16.8656 17.9468 17.9203 17.7077C17.9672 17.8999 18.0094 18.0921 18.0469 18.2796C18.2766 19.2921 18.3141 20.3468 18.1641 21.3874ZM19.0172 16.3483C18.8859 16.3905 18.7547 16.4327 18.6188 16.4702C18.2906 15.4483 17.8875 14.4499 17.4234 13.4796C17.8734 12.5233 18.2531 11.5389 18.5719 10.5311C18.8156 10.6014 19.05 10.6764 19.275 10.7514C21.4594 11.5014 22.9922 12.6171 22.9922 13.4702C22.9922 14.3889 21.3563 15.5749 19.0172 16.3483ZM12 15.6452C13.1859 15.6452 14.1469 14.6843 14.1469 13.4983C14.1469 12.3124 13.1859 11.3514 12 11.3514C10.8141 11.3514 9.85312 12.3124 9.85312 13.4983C9.85312 14.6843 10.8141 15.6452 12 15.6452Z" fill="black"/>
</g>
<defs>
<clipPath id="clip0_164_6332">
<rect width="24" height="24" fill="white"/>
</clipPath>
</defs>
</svg>
