<svg width="24" height="24" viewBox="0 0 24 24" fill="none" xmlns="http://www.w3.org/2000/svg">
<g clip-path="url(#clip0_164_6333)">
<path d="M11.319 18.1443C11.3077 18.1743 11.2965 18.1983 11.319 18.1443ZM20.6615 13.7947C19.9072 13.7943 19.1631 14.0253 18.4865 14.4696C18.2652 13.8746 18.0365 13.3547 17.999 12.9647C17.954 12.5098 17.9052 12.2398 17.9577 11.6998C18.0102 11.1599 18.2465 10.3949 18.2427 10.3399C18.239 10.2849 18.1902 10.01 17.7064 10.005C17.2227 9.99997 16.8064 10.13 16.7581 10.2999C16.6726 10.6106 16.6062 10.9299 16.5593 11.2549C16.4731 11.8398 15.5922 13.9296 15.0934 15.0196C14.9284 14.5946 14.7897 14.2196 14.7597 13.9196C14.7147 13.4647 14.6659 13.1947 14.7184 12.6547C14.7709 12.1148 15.0072 11.3499 15.0034 11.2949C14.9997 11.2399 14.9509 10.9649 14.4675 10.9599C13.9842 10.9549 13.5675 11.0849 13.5188 11.2549C13.47 11.4248 13.4175 11.8248 13.32 12.2098C13.2225 12.5948 12.0491 16.0745 11.742 16.9794C11.5845 17.4394 11.4495 17.8093 11.352 18.0593C11.337 18.0993 11.3257 18.1243 11.3182 18.1443C11.3295 18.1193 11.337 18.0943 11.337 18.1043C11.2545 18.3193 11.2057 18.4393 11.2057 18.4393V18.4443C11.142 18.6043 11.0707 18.7492 11.037 18.7492C11.0145 18.7492 10.9657 18.3293 11.0482 17.7543C11.2245 16.5444 11.6408 14.6646 11.637 14.5996C11.6333 14.5646 11.7158 14.2396 11.3632 14.0646C11.022 13.8996 10.8982 14.1746 10.8682 14.1746C10.8382 14.1746 10.8157 14.2746 10.8157 14.2746C10.8157 14.2746 11.1945 12.1548 10.0886 12.1548C9.3986 12.1548 8.43859 13.1647 7.96683 14.0796C7.67058 14.2946 7.02932 14.7596 6.35432 15.2545C6.09556 15.4445 5.82931 15.6395 5.57806 15.8245C5.55931 15.7995 5.54431 15.7745 5.52556 15.7495C4.18342 13.8396 1.70539 12.4898 1.81039 9.92497C1.84789 8.99005 2.09164 6.53525 6.57557 3.5555C10.2506 1.1157 13.1888 1.78564 13.6947 3.27552C14.4222 5.40034 12.1238 9.35502 8.30734 9.92497C6.8527 10.14 6.08806 9.39002 5.89681 9.11004C5.69806 8.81506 5.66806 8.80006 5.59306 8.85506C5.4693 8.94505 5.54806 9.20503 5.59306 9.36002C5.70556 9.75499 6.17431 10.4549 6.9727 10.8049C7.67396 11.1099 9.37947 11.2799 11.4416 10.2149C13.7584 9.02505 15.5618 5.71032 15.033 2.93555C14.4945 0.115778 10.9875 -0.809146 7.67133 0.760725C5.69543 1.69565 3.55866 3.16553 2.02151 5.08037C0.195619 7.36018 -0.0965097 9.34502 0.0234917 10.175C0.450622 13.1197 3.49491 15.0396 4.7133 16.4594C4.6533 16.5044 4.59705 16.5444 4.54454 16.5844C3.93366 16.9894 1.61276 18.6093 1.03188 20.3191C0.375621 22.259 1.14063 23.6488 1.64276 23.8388C3.2099 24.4188 4.81455 23.3739 5.67668 21.659C6.53882 19.9441 6.43419 17.7043 6.03669 16.6844C6.03294 16.6694 6.02544 16.6594 6.02169 16.6444C6.17919 16.5194 6.34044 16.3944 6.50169 16.2695C6.81257 16.0245 7.11632 15.7995 7.38258 15.6045C7.23258 16.1445 7.12382 16.7944 7.06757 17.7343C7.00007 18.8342 7.34133 20.2591 7.78383 20.8191C7.97883 21.0641 8.21471 21.0691 8.36096 21.0691C8.87847 21.0691 9.11097 20.4991 9.36935 19.8192C9.6881 18.9892 9.96936 18.0243 9.96936 18.0243C9.96936 18.0243 9.61685 20.6341 10.5806 20.6341C10.9327 20.6341 11.2852 20.0291 11.4431 19.7192V19.7242C11.4431 19.7242 11.4506 19.7042 11.4694 19.6642C11.5069 19.5892 11.5256 19.5442 11.5256 19.5442V19.5292C11.6681 19.2042 11.9794 18.4593 12.4478 17.2294C13.0553 15.6395 13.6362 13.6547 13.6362 13.6547C13.6923 14.091 13.77 14.5219 13.8687 14.9446C13.9737 15.4195 14.1949 15.9395 14.3712 16.4444C14.2287 16.7044 14.1424 16.8544 14.1424 16.8544C14.1427 16.8582 14.144 16.8618 14.1462 16.8644C14.0337 17.0644 13.9062 17.2794 13.7749 17.4893C13.2953 18.2493 12.7249 19.1192 12.6499 19.3692C12.5599 19.6642 12.5824 19.8842 12.7549 20.0541C12.8824 20.1841 13.1074 20.2041 13.3433 20.1791C13.7745 20.1391 14.0783 19.9991 14.2245 19.9092C14.4942 19.7803 14.749 19.6019 14.9817 19.3792C15.4504 18.9192 15.7354 18.2593 15.7092 17.3894C15.6942 16.9094 15.5779 16.4294 15.4354 15.9795C15.4767 15.8995 15.5217 15.8145 15.5629 15.7295C16.3051 14.2846 16.8788 12.6987 16.8788 12.6987C16.9349 13.1351 17.0126 13.566 17.1113 13.9886C17.2013 14.3936 17.3772 14.8386 17.5384 15.2735C16.8413 16.0285 16.4101 16.9034 16.2601 17.4784C15.9826 18.5433 16.2001 19.0232 16.6088 19.1332C16.7926 19.1832 17.0551 19.0682 17.2501 18.9582C17.5397 18.8296 17.8127 18.6425 18.0597 18.4033C18.5285 17.9433 18.9818 17.2984 18.9518 16.4234C18.9406 16.0285 18.8581 15.6335 18.7493 15.2535C19.3381 14.9236 20.1027 14.7436 21.0777 14.8936C23.1658 15.2185 23.5745 16.9584 23.4958 17.6833C23.417 18.4083 22.9783 18.8132 22.832 18.9332C22.6858 19.0532 22.6408 19.0982 22.652 19.1882C22.6708 19.3182 22.7383 19.3132 22.862 19.2832C23.0345 19.2432 23.9566 18.6933 23.9979 17.3484C24.0579 15.6485 22.832 13.7787 20.6604 13.7937L20.6615 13.7947ZM4.56704 21.0291C3.87741 22.034 2.9099 22.4139 2.49402 22.094C2.04777 21.748 2.22402 20.2691 3.0749 19.1982C3.59241 18.5483 4.25954 17.9483 4.70205 17.5783C4.8033 17.4983 4.94955 17.3784 5.12955 17.2334C5.15955 17.2084 5.17455 17.1984 5.17455 17.1984C5.2083 17.1684 5.2458 17.1434 5.2833 17.1134C5.59418 18.6333 5.29455 19.9731 4.56704 21.0281V21.0291ZM9.6056 16.4594C9.3656 17.2444 8.85972 19.2442 8.55222 19.1392C8.28971 19.0492 8.12846 17.5243 8.49972 16.0245C8.68722 15.2695 9.08472 14.3696 9.32097 14.0196C9.69935 13.4547 10.1156 13.2747 10.2131 13.4997C10.3444 13.7947 9.7556 15.9695 9.6056 16.4594ZM13.7682 19.1092C13.6669 19.1792 13.5731 19.2242 13.5281 19.1892C13.4944 19.1642 13.5694 19.0692 13.5694 19.0692C13.5694 19.0692 14.0907 18.3243 14.2969 17.9843C14.4169 17.7843 14.5557 17.5493 14.7053 17.2894C14.7053 17.3144 14.709 17.3394 14.709 17.3694C14.7042 18.2643 14.0595 18.8692 13.767 19.1092H13.7682ZM16.9774 18.1343C16.9024 18.0643 16.9137 17.8293 17.1649 17.0994C17.2624 16.8144 17.4871 16.3344 17.8775 15.8745C17.9216 16.0486 17.9457 16.2307 17.9487 16.4144C17.945 17.5393 17.3412 17.9593 16.9778 18.1343H16.9774Z" fill="black"/>
</g>
<defs>
<clipPath id="clip0_164_6333">
<rect width="24" height="24" fill="white"/>
</clipPath>
</defs>
</svg>
