<svg width="24" height="24" viewBox="0 0 24 24" fill="none" xmlns="http://www.w3.org/2000/svg">
<g clip-path="url(#clip0_297_2119)">
<path d="M19.7927 0L19.6208 0.895761C19.3551 2.59335 19.4513 3.07903 20.1798 3.70905L20.8831 4.29095L20.1546 7.53952C19.7193 9.47766 19.1856 11.1019 18.8465 11.6357C18.5555 12.0962 18.2165 12.7743 18.1432 13.1386C18.0218 13.5739 17.6094 14.0114 16.9794 14.3986C16.4227 14.7148 15.3299 15.5624 14.5555 16.2428C13.937 16.7995 13.5109 17.1409 13.2795 17.2875L12.5235 17.8854C12.2806 18.2749 12.1432 18.5888 12.0905 18.827C12.0378 19.0722 12.0676 19.2348 12.1455 19.3539C12.2211 19.4685 12.3517 19.5487 12.5303 19.5991C12.7419 19.6487 12.9596 19.6664 13.1764 19.6518C13.6668 19.6183 14.1522 19.5322 14.6243 19.3952C14.7846 19.3516 14.9106 19.3104 15.0206 19.2738C15.1901 19.0653 15.5819 18.6712 16.276 17.9862C18.118 16.1695 18.8213 15.1752 18.0951 15.4433C17.827 15.5395 17.9484 15.2967 18.4089 14.811C19.3803 13.8648 19.937 12.4353 21.1008 7.95188C22.0217 4.41237 22.0217 4.36197 22.6999 4.36197C23.0183 4.36197 23.9187 4.41695 23.9187 4.41695V0H21.8522H19.7927ZM11.6323 7.57159C10.9633 7.56701 9.52462 8.58648 5.21764 12.1031C5.03207 12.5452 5.01603 12.8499 5.1008 13.047C5.15578 13.1821 5.25658 13.2761 5.39633 13.3448C5.53379 13.4135 5.71248 13.4547 5.9095 13.4708C6.30126 13.5051 6.76403 13.4433 7.13745 13.37L7.38946 13.3127C7.47572 13.197 7.58898 13.1042 7.71935 13.0424C7.9851 12.8958 9.1008 11.8786 10.2165 10.7881C12.1798 8.79954 12.6403 7.90148 11.8408 7.61053C11.7752 7.58443 11.7029 7.57121 11.6323 7.57159ZM16.6632 8.95303C16.0744 8.96907 15.0137 9.65177 13.197 11.1019C12.2852 11.8419 11.7079 12.2405 11.3986 12.323L10.1982 13.2715C9.74684 14.0962 9.68041 14.6071 9.79954 14.8889C9.82935 14.9584 9.87264 15.0213 9.92691 15.074C9.98117 15.1267 10.0453 15.1681 10.1157 15.1959C10.2907 15.265 10.4773 15.3 10.6655 15.299C11.1152 15.2942 11.5621 15.2287 11.9943 15.1042C12.2195 15.0438 12.4419 14.9735 12.6609 14.8935L12.7274 14.866L12.8488 14.8018C13.0779 14.5063 13.6048 13.9496 14.2646 13.3081C16.3494 11.2967 17.4147 9.86712 17.197 9.33333C17.0985 9.07445 16.929 8.94387 16.6632 8.95303ZM11.11 11.4273C10.9404 11.4456 10.5601 11.7388 9.87514 12.3391C8.88545 13.2142 7.80641 13.7182 7.43299 13.4937C7.3462 13.5133 7.25914 13.5316 7.17182 13.5487C6.79152 13.6243 6.31729 13.6861 5.89347 13.6518C5.69377 13.6397 5.49804 13.5907 5.31615 13.5074C5.14458 13.429 5.00767 13.2905 4.93127 13.118C4.8465 12.9118 4.8465 12.6552 4.94272 12.3276L3.45361 13.551L0.0836201 16.3391V20.8591L11.126 12.1604C11.1239 12.0651 11.1362 11.9701 11.1626 11.8786C11.2474 11.5716 11.2428 11.4158 11.11 11.4295V11.4273ZM15.8614 12.8912C15.6941 12.8912 15.4147 13.1271 14.9679 13.6014C14.3608 14.2497 13.4055 14.8774 12.8992 15.0057L12.8213 15.047C12.7382 15.0813 12.6541 15.1134 12.5693 15.1432C12.4318 15.189 12.2531 15.244 12.047 15.299C11.6346 15.4112 11.1214 15.5143 10.6632 15.5029C10.4472 15.5026 10.2333 15.4606 10.0332 15.3791C9.84463 15.3014 9.69353 15.1536 9.61168 14.9668C9.4788 14.6483 9.5315 14.2016 9.82245 13.567L0.0813293 21.2394V24H4.36082L13.4376 16.8706C13.6735 16.6094 14.0286 16.252 14.5074 15.8053C15.7904 14.6163 16.0813 14.2062 16.0813 13.5991C16.0813 13.1271 16.0286 12.8889 15.8614 12.8889V12.8912ZM18.0218 17.3585L17.2451 18.1329C16.8098 18.5452 16.0332 19.0538 15.5017 19.2715L15.3963 19.3173L15.3895 19.3287L15.3665 19.3516C15.3459 19.3677 15.3368 19.37 15.3207 19.3768C15.1085 19.4572 14.893 19.5282 14.6747 19.5899C14.1893 19.7312 13.69 19.8195 13.1856 19.8534C12.9471 19.8687 12.7076 19.8478 12.4754 19.7915C12.2738 19.7471 12.0959 19.6296 11.9759 19.4616C11.866 19.2921 11.8339 19.0653 11.8958 18.7858C11.945 18.5868 12.018 18.3945 12.1134 18.213L4.78923 24H14.5303L15.6941 22.6667C17.2932 20.8018 18.0218 19.4685 18.0218 18.3276V17.3585Z" fill="black"/>
</g>
<defs>
<clipPath id="clip0_297_2119">
<rect width="24" height="24" fill="white"/>
</clipPath>
</defs>
</svg>
