<svg width="24" height="24" viewBox="0 0 24 24" fill="none" xmlns="http://www.w3.org/2000/svg">
<g clip-path="url(#clip0_164_6344)">
<path d="M21.5331 9.3655C21.5483 9.57869 21.5483 9.79193 21.5483 10.0051C21.5483 16.5076 16.5991 24 7.55339 24C4.76658 24 2.17776 23.1929 9.15527e-05 21.7919C0.396045 21.8376 0.776716 21.8528 1.1879 21.8528C3.48736 21.8528 5.60414 21.0762 7.2945 19.7513C5.13206 19.7056 3.31987 18.2894 2.6955 16.3401C3.00009 16.3858 3.30464 16.4163 3.62447 16.4163C4.06608 16.4163 4.50773 16.3553 4.91887 16.2488C2.66508 15.7919 0.97467 13.8122 0.97467 11.4213V11.3605C1.62947 11.7259 2.39095 11.9544 3.198 11.9848C1.87312 11.1015 1.00514 9.59393 1.00514 7.88833C1.00514 6.97464 1.24875 6.13708 1.67517 5.40611C4.0965 8.39088 7.73611 10.3401 11.8173 10.5533C11.7412 10.1878 11.6955 9.80716 11.6955 9.42644C11.6955 6.71575 13.8884 4.50766 16.6142 4.50766C18.0305 4.50766 19.3096 5.10157 20.2081 6.06096C21.3198 5.84777 22.3858 5.43658 23.33 4.87314C22.9644 6.0153 22.1878 6.97469 21.1675 7.58378C22.1574 7.47724 23.1168 7.20307 24 6.82239C23.3301 7.79697 22.4924 8.66496 21.5331 9.3655Z" fill="black"/>
</g>
<defs>
<clipPath id="clip0_164_6344">
<rect width="24" height="24" fill="white"/>
</clipPath>
</defs>
</svg>
