<svg width="48" height="48" viewBox="0 0 48 48" fill="none" xmlns="http://www.w3.org/2000/svg">
<path d="M38.869 40.6628C38.971 38.9224 38.6786 36.7401 39.0594 34.5782C39.3109 33.1369 39.8956 31.8316 40.7046 30.6214C48.1897 19.472 41.7175 4.53582 28.4674 2.37391C18.664 0.769476 9.17336 7.67671 7.6981 17.4868C7.58252 18.2347 7.42616 19.0029 7.47374 19.7508C7.6777 22.9528 6.67832 25.8558 5.36623 28.6975C4.95832 29.5813 4.6116 30.4992 4.21729 31.3965C3.97254 31.9472 4.10172 32.2531 4.71358 32.3959C5.42741 32.5591 6.12766 32.7698 6.8347 32.9805C7.93604 33.3069 8.5547 34.0207 8.72466 35.1764C9.08498 37.6239 9.47929 40.0578 9.86681 42.4984C10.0164 43.4637 10.7234 44.1368 11.7024 44.1436C14.0411 44.1708 16.3798 44.2048 18.7184 44.13C20.9279 44.0552 22.7567 42.1993 22.9538 40.0034C22.9607 39.9218 22.9538 39.8402 22.9674 39.7586C23.049 38.936 23.4569 38.5077 24.1027 38.5621C24.7146 38.6164 25.0681 39.0924 25.0002 39.8742C24.769 42.5324 23.4706 44.4699 21.0503 45.6121C20.18 46.0268 19.2419 46.19 18.2765 46.19C16.1554 46.1967 14.0342 46.2036 11.9131 46.19C9.79881 46.1832 8.23518 44.8642 7.88845 42.7771C7.50094 40.4452 7.13382 38.1134 6.7871 35.7747C6.71232 35.2513 6.51516 34.9386 5.97809 34.8229C5.31864 34.6734 4.66598 34.4762 4.01334 34.2859C2.28653 33.7896 1.61348 32.3823 2.30693 30.737C2.99357 29.1122 3.66661 27.4806 4.36686 25.8558C5.10788 24.1358 5.46821 22.3478 5.46821 20.4714C5.46821 10.1785 12.8446 1.72126 23.049 0.286785C34.0829 -1.26326 44.5525 6.94927 45.7694 18.0852C46.2997 22.9801 45.2188 27.4874 42.4858 31.5733C41.3708 33.2389 40.8541 35.0404 40.861 37.0256C40.8745 40.2345 40.861 43.4433 40.861 46.6522C40.861 47.5088 40.5278 47.9643 39.9024 47.9983C39.2633 48.0324 38.8826 47.536 38.8758 46.6318C38.869 44.7826 38.8758 42.9334 38.8758 40.6628H38.869Z" fill="#333333"/>
<path d="M16.5871 11.5374V21.0239H15.2718V13.0065L13.5648 14.2378V12.7687L15.2579 11.5374H16.5871Z" fill="#333333"/>
<path d="M23.7248 10.4765C23.7248 9.32195 23.1546 8.74466 22.0141 8.74466C21.3946 8.74466 20.9581 8.8925 20.7047 9.18818C20.4512 9.48386 20.3245 9.9133 20.3245 10.4765V18.1642C20.3245 18.7273 20.4512 19.1568 20.7047 19.4525C20.9581 19.7482 21.3946 19.896 22.0141 19.896C23.1546 19.896 23.7248 19.3187 23.7248 18.1642V10.4765ZM18.3392 10.4343C18.3392 9.37826 18.642 8.53346 19.2474 7.89986C19.8528 7.26626 20.7751 6.94946 22.0141 6.94946C23.2673 6.94946 24.1966 7.26626 24.802 7.89986C25.4074 8.53346 25.7101 9.37826 25.7101 10.4343V18.2275C25.7101 19.2835 25.4074 20.1283 24.802 20.7619C24.1966 21.3815 23.2673 21.6912 22.0141 21.6912C20.7751 21.6912 19.8528 21.3815 19.2474 20.7619C18.642 20.1283 18.3392 19.2835 18.3392 18.2275V10.4343Z" fill="#333333"/>
<path d="M30.1157 9.00854V21.18H28.4282V10.8935L26.238 12.4733V10.5883L28.4102 9.00854H30.1157Z" fill="#333333"/>
<path d="M29.9185 22.4275V32.988H28.4544V24.063L26.5541 25.4336V23.7981L28.4388 22.4275H29.9185Z" fill="#333333"/>
<path d="M35.1635 13.7341C35.1635 12.9692 34.7857 12.5868 34.0302 12.5868C33.6197 12.5868 33.3306 12.6847 33.1626 12.8806C32.9947 13.0765 32.9108 13.361 32.9108 13.7341V18.8272C32.9108 19.2003 32.9947 19.4848 33.1626 19.6807C33.3306 19.8766 33.6197 19.9746 34.0302 19.9746C34.7857 19.9746 35.1635 19.5921 35.1635 18.8272V13.7341ZM31.5955 13.7061C31.5955 13.0065 31.796 12.4468 32.1972 12.0271C32.5982 11.6073 33.2093 11.3975 34.0302 11.3975C34.8604 11.3975 35.476 11.6073 35.8771 12.0271C36.2782 12.4468 36.4788 13.0065 36.4788 13.7061V18.8692C36.4788 19.5688 36.2782 20.1285 35.8771 20.5483C35.476 20.9587 34.8604 21.1639 34.0302 21.1639C33.2093 21.1639 32.5982 20.9587 32.1972 20.5483C31.796 20.1285 31.5955 19.5688 31.5955 18.8692V13.7061Z" fill="#333333"/>
<path d="M34.8875 23.9343C34.8875 23.357 34.6024 23.0684 34.0321 23.0684C33.7223 23.0684 33.5041 23.1423 33.3774 23.2901C33.2507 23.438 33.1873 23.6527 33.1873 23.9343V27.7781C33.1873 28.0598 33.2507 28.2745 33.3774 28.4223C33.5041 28.5701 33.7223 28.6441 34.0321 28.6441C34.6024 28.6441 34.8875 28.3555 34.8875 27.7781V23.9343ZM32.1947 23.9132C32.1947 23.3852 32.346 22.9628 32.6488 22.646C32.9514 22.3292 33.4126 22.1708 34.0321 22.1708C34.6586 22.1708 35.1233 22.3292 35.426 22.646C35.7287 22.9628 35.8801 23.3852 35.8801 23.9132V27.8098C35.8801 28.3378 35.7287 28.7602 35.426 29.077C35.1233 29.3867 34.6586 29.5417 34.0321 29.5417C33.4126 29.5417 32.9514 29.3867 32.6488 29.077C32.346 28.7602 32.1947 28.3378 32.1947 27.8098V23.9132Z" fill="#333333"/>
<path d="M24.1955 24.4623C24.1955 23.8849 23.9104 23.5963 23.3401 23.5963C23.0303 23.5963 22.8121 23.6702 22.6854 23.8181C22.5587 23.9659 22.4953 24.1806 22.4953 24.4623V28.3061C22.4953 28.5877 22.5587 28.8024 22.6854 28.9502C22.8121 29.0981 23.0303 29.172 23.3401 29.172C23.9104 29.172 24.1955 28.8834 24.1955 28.3061V24.4623ZM21.5027 24.4411C21.5027 23.9131 21.654 23.4907 21.9568 23.1739C22.2594 22.8571 22.7206 22.6987 23.3401 22.6987C23.9666 22.6987 24.4313 22.8571 24.734 23.1739C25.0367 23.4907 25.1881 23.9131 25.1881 24.4411V28.3378C25.1881 28.8658 25.0367 29.2882 24.734 29.605C24.4313 29.9147 23.9666 30.0696 23.3401 30.0696C22.7206 30.0696 22.2594 29.9147 21.9568 29.605C21.654 29.2882 21.5027 28.8658 21.5027 28.3378V24.4411Z" fill="#333333"/>
</svg>
